<svg version="1.0" xmlns="http://www.w3.org/2000/svg"
 width="1024" height="768" viewBox="-0 0 1024 768"
 preserveAspectRatio="xMidYMid meet">

<g transform="translate(60,715) scale(0.09,-0.1)"
fill="#334166" stroke="none">
<path d="M4685 6463 c-757 -45 -1311 -138 -1890 -318 -243 -75 -695 -252 -728
-284 -8 -8 109 -96 218 -162 111 -67 377 -193 528 -248 166 -62 401 -131 598
-176 155 -36 429 -89 433 -83 2 2 17 24 35 50 76 112 204 228 394 353 53 36
89 66 92 79 2 12 12 111 21 221 9 110 17 201 18 201 0 1 75 -90 166 -202 l165
-204 92 0 c401 -1 949 -206 1195 -448 l67 -66 143 24 c318 51 702 150 975 250
153 57 463 205 563 270 91 59 200 140 200 149 0 10 -261 115 -480 193 -303
108 -840 266 -1050 308 -177 35 -521 72 -850 90 -164 9 -773 11 -905 3z"/>
<path d="M8015 5794 c-56 -48 -213 -152 -323 -213 -241 -133 -574 -260 -923
-351 -156 -40 -460 -104 -556 -116 -29 -4 -53 -9 -53 -11 0 -3 20 -30 44 -61
134 -175 234 -404 252 -580 l7 -62 47 0 c66 0 385 26 690 55 810 80 1546 203
2179 367 l124 32 -139 136 c-212 207 -403 352 -690 526 -147 89 -584 314 -608
314 -6 -1 -29 -16 -51 -36z"/>
<path d="M1820 5742 c-406 -220 -714 -445 -1048 -767 -67 -65 -122 -123 -122
-129 0 -7 41 -22 92 -35 639 -158 1296 -268 2099 -351 l205 -21 65 63 c36 35
144 127 240 203 254 202 447 364 453 382 8 21 -1 33 -27 33 -12 0 -101 16
-197 35 -648 131 -1188 344 -1528 603 -45 34 -83 62 -84 62 -2 0 -68 -35 -148
-78z"/>
<path d="M9308 4719 c-718 -184 -1644 -322 -2636 -393 -106 -8 -195 -16 -197
-18 -3 -3 -10 -51 -16 -108 -11 -113 -30 -175 -148 -500 -39 -107 -71 -198
-71 -202 0 -5 862 -8 1915 -8 l1915 0 0 48 c0 71 -18 214 -41 326 -57 280
-216 612 -406 849 -31 39 -61 66 -71 66 -9 -1 -119 -28 -244 -60z"/>
<path d="M526 4718 c-131 -145 -257 -336 -352 -533 -101 -210 -157 -406 -171
-604 l-6 -91 1986 0 1987 0 122 126 c68 70 170 162 228 206 105 79 295 182
358 194 63 12 65 74 6 142 -52 62 -109 77 -274 76 -179 -1 -272 -17 -405 -69
-148 -58 -342 -119 -467 -147 -82 -18 -133 -23 -253 -23 -148 0 -151 0 -205
30 -40 22 -61 42 -79 73 -30 56 -38 149 -18 215 8 26 11 47 6 47 -5 0 -116 11
-247 25 -597 64 -1134 147 -1612 250 -171 37 -479 112 -541 131 -11 3 -33 -13
-63 -48z"/>
<path d="M0 3378 c1 -54 27 -240 45 -309 56 -223 165 -467 302 -674 67 -101
182 -255 227 -303 10 -10 40 -2 153 42 591 230 1496 404 2590 496 133 11 253
20 266 20 23 0 25 4 32 82 10 121 48 256 103 372 47 98 132 236 175 284 l20
22 -1956 0 -1957 0 0 -32z"/>
<path d="M6205 3398 c-49 -147 -85 -305 -92 -405 -7 -94 11 -160 75 -270 42
-72 3 -63 357 -88 1142 -83 2240 -296 2793 -543 l110 -49 60 72 c144 170 334
439 392 555 83 165 170 529 170 715 l0 25 -1930 0 c-1536 0 -1931 -3 -1935
-12z"/>
<path d="M6290 2569 c0 -7 35 -46 77 -87 84 -83 93 -106 85 -205 l-4 -47
-1376 2 -1375 3 -29 85 c-15 46 -35 120 -43 164 -8 44 -17 82 -20 85 -8 7
-422 -27 -715 -60 -724 -81 -1301 -189 -1800 -335 -160 -47 -418 -139 -434
-155 -11 -10 189 -211 339 -340 266 -229 603 -461 927 -638 l77 -42 83 63
c472 361 1277 622 2197 713 85 8 156 17 158 19 14 13 -155 101 -277 144 -74
25 -254 72 -330 85 -14 2 544 4 1240 5 1072 0 1256 -2 1205 -13 -92 -21 -227
-72 -294 -113 -75 -46 -161 -113 -156 -122 3 -4 37 -10 77 -14 224 -20 602
-87 861 -152 530 -133 1000 -342 1286 -572 l63 -51 50 25 c217 110 531 324
773 525 105 88 431 402 446 430 7 14 -7 23 -89 57 -585 242 -1618 444 -2697
527 -110 8 -224 17 -252 20 -36 4 -53 2 -53 -6z"/>
<path d="M4440 1704 c-19 -3 -105 -11 -190 -20 -809 -81 -1555 -306 -2001
-603 -137 -92 -167 -117 -154 -130 19 -19 378 -178 531 -234 183 -68 393 -128
529 -152 102 -18 306 -26 338 -13 15 7 17 27 17 226 l0 219 208 6 c368 9 588
70 732 204 70 65 106 127 126 222 22 103 18 159 -13 222 -30 58 -38 62 -123
53z"/>
<path d="M5709 1655 c-11 -25 -27 -78 -35 -118 -41 -193 43 -354 229 -442 147
-70 304 -95 598 -95 l196 0 18 -240 c16 -204 21 -240 34 -240 28 0 250 49 370
81 255 68 559 179 789 289 l125 60 -59 47 c-380 297 -1021 531 -1774 647 -158
24 -415 56 -453 56 -12 0 -25 -16 -38 -45z"/>
<path d="M3867 873 c-4 -3 -7 -201 -7 -440 l0 -433 130 0 130 0 0 180 0 180
140 0 140 0 0 90 0 90 -140 0 -140 0 0 75 0 75 140 0 140 0 0 95 0 95 -263 0
c-145 0 -267 -3 -270 -7z"/>
<path d="M4500 440 l0 -440 125 0 125 0 0 440 0 440 -125 0 -125 0 0 -440z"/>
<path d="M4870 441 l0 -441 218 0 c281 0 333 13 419 102 23 24 54 70 70 103
24 54 28 74 31 191 5 148 -6 213 -47 300 -34 71 -88 125 -156 156 -47 21 -65
23 -292 26 l-243 4 0 -441z m409 211 c59 -30 76 -77 76 -217 0 -184 -26 -222
-159 -232 l-76 -6 0 237 0 236 63 0 c39 0 75 -6 96 -18z"/>
<path d="M5687 873 c-4 -3 -7 -201 -7 -440 l0 -433 300 0 300 0 0 100 0 100
-160 0 -160 0 0 85 0 85 160 0 160 0 0 90 0 90 -160 0 -160 0 0 70 0 70 160 0
160 0 0 95 0 95 -293 0 c-162 0 -297 -3 -300 -7z"/>
</g>
</svg>
